Coordinates
version=1
nRows=14
nColumns=40
inDegrees=yes

Units are S.I. units (second, meters, Newtons, ...)
Angles are in degrees.

endheader
time	pelvis_tilt	pelvis_list	pelvis_rotation	pelvis_tx	pelvis_ty	pelvis_tz	hip_flexion_r	hip_adduction_r	hip_rotation_r	knee_angle_r	knee_angle_r_beta	ankle_angle_r	subtalar_angle_r	mtp_angle_r	hip_flexion_l	hip_adduction_l	hip_rotation_l	knee_angle_l	knee_angle_l_beta	ankle_angle_l	subtalar_angle_l	mtp_angle_l	lumbar_extension	lumbar_bending	lumbar_rotation	arm_flex_r	arm_add_r	arm_rot_r	elbow_flex_r	pro_sup_r	wrist_flex_r	wrist_dev_r	arm_flex_l	arm_add_l	arm_rot_l	elbow_flex_l	pro_sup_l	wrist_flex_l	wrist_dev_l
     21.50000000	     -6.69425694	     -6.23129641	      3.41256835	      1.02350718	      0.92644220	      0.47961342	     16.52887018	      3.92282721	    -18.98266899	     15.94727355	     15.94727355	      8.54299184	      0.20515064	     -3.15163698	     36.65330987	    -11.40969104	      6.70147391	     72.31518459	     72.31518459	      4.69290225	    -15.84548488	      4.63342813	    -12.37831126	      4.86224420	      4.18598610	     11.58917951	    -16.94017322	     -1.27651012	     45.73089203	     45.05747391	      0.00000000	      0.00000000	      5.67713652	    -11.52887653	     -1.87752466	     69.19980023	     46.10853076	      0.00000000	      0.00000000
     21.51157143	     -6.72412717	     -6.22205419	      3.64209949	      1.02244828	      0.92694023	      0.48020229	     15.67377532	      4.06875403	    -19.20553239	     15.25231351	     15.25231351	      8.73863524	      0.63883160	     -3.44274274	     38.33654905	    -11.23105213	      6.59352472	     71.12212452	     71.12212452	      4.85518344	    -16.43517094	      4.86365862	    -12.40764852	      4.82261376	      4.17026555	     14.47539515	    -17.24316967	     -0.58515213	     47.17327381	     45.01663156	      0.00000000	      0.00000000	      4.73913158	    -11.00482863	     -1.92632581	     64.77356007	     46.12564782	      0.00000000	      0.00000000
     21.52314286	     -6.74117660	     -6.23727439	      3.86957095	      1.02137424	      0.92730920	      0.48078456	     14.86998475	      4.26434635	    -19.24245212	     14.63894259	     14.63894259	      8.91274749	      0.68545469	     -3.63389152	     39.86370420	    -11.05328388	      6.48217205	     69.72105497	     69.72105497	      5.08830765	    -16.90570551	      5.44096337	    -12.48086858	      4.83908110	      4.16357311	     17.30675137	    -17.64629240	      0.32006688	     48.89592051	     44.95431490	      0.00000000	      0.00000000	      3.90477924	    -10.47995294	     -2.09935925	     60.31234602	     46.14354256	      0.00000000	      0.00000000
     21.53471429	     -6.73705731	     -6.28152458	      4.07752435	      1.02037888	      0.92761410	      0.48138444	     14.02836601	      4.50464732	    -19.24483861	     13.98467577	     13.98467577	      9.12510818	      0.78692375	     -3.70641218	     41.21419828	    -10.90746197	      6.36723148	     68.09039500	     68.09039500	      5.27092616	    -17.32697620	      6.20573287	    -12.64083931	      4.85947508	      3.92439355	     20.25035249	    -17.68899590	      0.72988005	     50.63041426	     44.90348252	      0.00000000	      0.00000000	      2.67525131	    -10.24055024	     -2.04592273	     56.88559743	     46.11943194	      0.00000000	      0.00000000
     21.54628571	     -6.76858867	     -6.34349020	      4.24456679	      1.01939469	      0.92775614	      0.48186052	     13.26472139	      4.74793613	    -19.26952261	     13.38712896	     13.38712896	      9.27973072	      0.88623946	     -3.96265118	     42.46126682	    -10.76854051	      6.21452043	     66.26543611	     66.26543611	      5.73634563	    -17.54235988	      7.71450189	    -12.65126943	      4.92523962	      4.21449042	     22.93831632	    -18.31370635	      1.99616204	     52.07981365	     44.83902108	      0.00000000	      0.00000000	      2.54486417	     -9.45282586	     -2.49725867	     51.42583229	     46.14995649	      0.00000000	      0.00000000
     21.55785714	     -6.73808507	     -6.37322691	      4.41277005	      1.01852090	      0.92789765	      0.48225716	     12.42948298	      4.96002958	    -19.25327426	     12.79417667	     12.79417667	      9.50018997	      0.99704822	     -4.00746651	     43.40335449	    -10.56422582	      6.07905644	     64.07788485	     64.07788485	      5.92589202	    -17.84774458	      8.57367631	    -12.84454226	      4.92335217	      4.05038393	     25.73770199	    -18.27508876	      2.19887959	     53.80275742	     44.79487593	      0.00000000	      0.00000000	      1.26572675	     -9.29419019	     -2.48631727	     48.73747754	     46.12746287	      0.00000000	      0.00000000
     21.56942857	     -6.80233501	     -6.44914403	      4.51601457	      1.01761634	      0.92782447	      0.48252349	     11.74089007	      5.18515155	    -19.24851918	     12.26812342	     12.26812342	      9.65460431	      1.18017559	     -4.28229947	     44.33432364	    -10.40090412	      5.94951850	     61.70547192	     61.70547192	      6.47544125	    -17.85038040	     10.37371037	    -12.84839577	      5.02006218	      4.53316538	     28.15695857	    -19.07697523	      3.59927578	     55.55190554	     44.73313654	      0.00000000	      0.00000000	      1.37346582	     -8.51054318	     -3.20622093	     43.35334019	     46.19891205	      0.00000000	      0.00000000
     21.58100000	     -6.86309106	     -6.58302583	      4.61723123	      1.01676315	      0.92767031	      0.48273889	     11.04076264	      5.47322652	    -19.27901568	     11.72238581	     11.72238581	      9.85126820	      1.43397624	     -4.32215325	     45.04074076	    -10.27662506	      5.88193446	     58.93955099	     58.93955099	      6.58378325	    -17.84350523	     10.97172551	    -12.94454877	      5.14648277	      4.41548150	     30.80557622	    -18.92942680	      3.72575612	     57.36111327	     44.69342470	      0.00000000	      0.00000000	      0.05246651	     -8.38265176	     -3.22565340	     41.12907031	     46.18070744	      0.00000000	      0.00000000
     21.59257143	     -6.90761630	     -6.64171476	      4.68086188	      1.01610751	      0.92741561	      0.48278501	     10.30827810	      5.66611386	    -19.27322325	     11.20136947	     11.20136947	     10.11695614	      1.74748409	     -4.38361079	     45.47587202	    -10.04530487	      5.83691204	     55.88033909	     55.88033909	      6.79061409	    -17.76971114	     11.40793754	    -13.00413454	      5.18452055	      4.39399365	     33.37968335	    -18.83403817	      3.93863200	     59.13436768	     44.64743050	      0.00000000	      0.00000000	     -1.16918413	     -8.24216020	     -3.18150464	     38.96562753	     46.15401435	      0.00000000	      0.00000000
     21.60414286	     -7.01544825	     -6.77538458	      4.69193878	      1.01547326	      0.92701394	      0.48272611	      9.64399285	      5.91922670	    -19.33894414	     10.68139350	     10.68139350	     10.35837214	      2.21912496	     -4.45528604	     45.79981594	     -9.88094126	      5.86740350	     52.55548118	     52.55548118	      6.95236624	    -17.46968185	     11.70326480	    -12.99229251	      5.31789327	      4.45272545	     35.86274265	    -18.78645526	      4.36392751	     61.06670111	     44.58970537	      0.00000000	      0.00000000	     -2.26856716	     -8.06231273	     -3.11070371	     36.65516634	     46.12593968	      0.00000000	      0.00000000
     21.61571429	     -7.12228690	     -6.86564896	      4.64566382	      1.01499287	      0.92656282	      0.48262582	      8.98608792	      6.11794540	    -19.35501959	     10.21159281	     10.21159281	     10.63360667	      2.70886545	     -4.52687436	     45.86093606	     -9.71270436	      5.87105000	     48.94189941	     48.94189941	      7.15613084	    -16.93654629	     11.94251011	    -12.99054012	      5.40015857	      4.61817680	     38.21068263	    -18.68247869	      4.64842045	     62.89725240	     44.53679313	      0.00000000	      0.00000000	     -3.46905440	     -7.94953328	     -3.00093407	     34.93456183	     46.09299622	      0.00000000	      0.00000000
     21.62728571	     -7.22942160	     -7.06250863	      4.60791835	      1.01473844	      0.92593909	      0.48231699	      8.27015231	      6.41789293	    -19.51671687	      9.65582087	      9.65582087	     10.90828182	      3.43531058	     -4.57902141	     45.75889560	     -9.60708187	      6.04890905	     45.19026892	     45.19026892	      7.42764507	    -16.14976916	     12.01115479	    -12.92437581	      5.61341375	      4.62750662	     40.49963420	    -18.52512504	      5.13823811	     65.09954334	     44.46705397	      0.00000000	      0.00000000	     -4.67506294	     -7.78659208	     -2.79484939	     33.09269307	     46.04781341	      0.00000000	      0.00000000
     21.63885714	     -7.50485062	     -7.39422510	      4.46993099	      1.01449510	      0.92482557	      0.48208166	      7.93656824	      6.80963266	    -19.49577669	      9.48199752	      9.48199752	     11.23153911	      3.70454509	     -4.72511754	     45.72906928	     -9.70012569	      6.21898295	     41.41896815	     41.41896815	      7.80640392	    -15.03467691	     12.32272116	    -12.63209065	      5.93997264	      5.26683457	     42.62717022	    -18.75349976	      5.01370011	     66.21263213	     44.44733685	      0.00000000	      0.00000000	     -5.95324951	     -7.59889471	     -2.71408040	     32.38435151	     46.01622939	      0.00000000	      0.00000000
     21.65042857	     -7.46467193	     -7.51724877	      4.39245487	      1.01495180	      0.92426910	      0.48144727	      6.76074073	      7.06217691	    -19.98695488	      8.48968571	      8.48968571	     11.54851181	      5.40361784	     -4.58120407	     45.01699230	     -9.64255568	      6.22938550	     37.48494509	     37.48494509	      8.10241604	    -13.85156475	     12.32776368	    -12.76037590	      6.13713698	      4.92043537	     44.64957736	    -18.35558511	      6.33405106	     69.90540086	     44.31510853	      0.00000000	      0.00000000	     -7.15308933	     -7.50472722	     -2.03018897	     30.30288117	     45.90351255	      0.00000000	      0.00000000
